<svg viewBox="0 0 32 32" xmlns="http://www.w3.org/2000/svg"><path d="M23.5 1038.112v9M26 1038.112v9M22.5 1048.862v-.75a1 1 0 0 1 1-1H26a1 1 0 0 1 1 1v.75M22.5 1036.362v.75a1 1 0 0 0 1 1H26a1 1 0 0 0 1-1v-.75M14.25 1038.112v9M16.75 1038.112v9M13.25 1048.862v-.75a1 1 0 0 1 1-1h2.5a1 1 0 0 1 1 1v.75M13.25 1036.362v.75a1 1 0 0 0 1 1h2.5a1 1 0 0 0 1-1v-.75" transform="translate(0 -1020.362)" fill="none" fill-rule="evenodd" stroke="#0a2463" stroke-width="1px" stroke-linecap="butt" stroke-linejoin="miter" stroke-opacity="1" class="stroke-000000"></path><path d="M30.493 1051.862H.507" transform="translate(0 -1020.362)" opacity="1" fill="none" fill-opacity="1" stroke="#0a2463" stroke-width="1" stroke-linecap="round" stroke-linejoin="round" stroke-miterlimit="4" stroke-dasharray="none" stroke-opacity="1" class="stroke-000000"></path><path d="M15.5 1027.862v-6.5H21v3h-4.25" transform="translate(0 -1020.362)" fill="none" fill-rule="evenodd" stroke="#0a2463" stroke-width="1px" stroke-linecap="butt" stroke-linejoin="round" stroke-opacity="1" class="stroke-000000"></path><path d="M2 1049.862h27" transform="translate(0 -1020.362)" opacity="1" fill="none" fill-opacity="1" stroke="#0a2463" stroke-width=".99999994" stroke-linecap="round" stroke-linejoin="round" stroke-miterlimit="4" stroke-dasharray="none" stroke-opacity="1" class="stroke-000000"></path><path d="M5 1038.112v9M7.5 1038.112v9M4 1048.862v-.75a1 1 0 0 1 1-1h2.5a1 1 0 0 1 1 1v.75M4 1036.362v.75a1 1 0 0 0 1 1h2.5a1 1 0 0 0 1-1v-.75" transform="translate(0 -1020.362)" fill="none" fill-rule="evenodd" stroke="#0a2463" stroke-width="1px" stroke-linecap="butt" stroke-linejoin="miter" stroke-opacity="1" class="stroke-000000"></path><path d="m15.5 1027.362 14 6.5v1.5h-28v-1.5z" transform="translate(0 -1020.362)" opacity="1" fill="none" fill-opacity="1" stroke="#0a2463" stroke-width=".99999994" stroke-linecap="round" stroke-linejoin="round" stroke-miterlimit="4" stroke-dasharray="none" stroke-opacity="1" class="stroke-000000"></path><path d="M17 1031.862a1.5 1.5 0 0 1-1.5 1.5 1.5 1.5 0 0 1-1.5-1.5 1.5 1.5 0 0 1 1.5-1.5 1.5 1.5 0 0 1 1.5 1.5z" transform="translate(0 -1020.362)" opacity="1" fill="none" fill-opacity="1" stroke="#0a2463" stroke-width="1" stroke-linecap="round" stroke-linejoin="round" stroke-miterlimit="4" stroke-dasharray="none" stroke-opacity="1" class="stroke-000000"></path></svg>